<?xml version="1.0" encoding="utf-8"?>
<!-- Generator: Adobe Illustrator 16.0.0, SVG Export Plug-In . SVG Version: 6.00 Build 0)  -->
<!DOCTYPE svg PUBLIC "-//W3C//DTD SVG 1.1//EN" "http://www.w3.org/Graphics/SVG/1.1/DTD/svg11.dtd">
<svg version="1.1" id="Layer_1" xmlns="http://www.w3.org/2000/svg" xmlns:xlink="http://www.w3.org/1999/xlink" x="0px" y="0px"
	 width="14.113px" height="20px" viewBox="0 0 14.113 20" enable-background="new 0 0 14.113 20" xml:space="preserve">
<g>
	<circle cx="6.887" cy="7.311" r="3.205"/>
	<path d="M7.601,20L7.1,19.486c-0.231-0.237-5.671-5.862-6.855-10.677C0.196,8.63,0.151,8.442,0.117,8.247
		C0.039,7.803,0,7.413,0,7.057c0-0.213,0.022-0.418,0.061-0.616C0.335,2.86,3.411,0,7.057,0s6.722,2.861,7.004,6.512
		c0.031,0.125,0.053,0.335,0.053,0.545c0,0.39-0.043,0.823-0.136,1.364c-0.888,4.933-5.712,10.78-5.917,11.027L7.601,20z
		 M7.057,1.293c-2.974,0-5.484,2.336-5.717,5.318C1.309,6.803,1.294,6.927,1.294,7.057c0,0.278,0.032,0.594,0.098,0.966
		C1.42,8.185,1.456,8.335,1.497,8.487c0.901,3.667,4.656,8.049,6.027,9.556c1.221-1.579,4.505-6.094,5.167-9.781
		c0.092-0.527,0.128-0.891,0.128-1.206c0-0.124-0.012-0.243-0.036-0.364C12.541,3.629,10.031,1.293,7.057,1.293z"/>
</g>
</svg>
